<svg data-v-423bf9ae="" xmlns="http://www.w3.org/2000/svg" viewBox="0 0 402 90" class="iconLeft"><!----><!----><!----><g data-v-423bf9ae="" id="04436a99-6b51-43b6-b7cb-32c52981b848" fill="black" transform="matrix(5.459508284166465,0,0,5.459508284166465,105.25023019365196,7.356688413122477)"><path d="M7.87 1.40L7.87 1.40Q8.19 1.40 8.39 1.60L8.39 1.60L8.39 1.60Q8.58 1.79 8.58 2.11L8.58 2.11L8.58 8.50L8.58 8.50Q8.58 9.59 8.07 10.48L8.07 10.48L8.07 10.48Q7.56 11.37 6.69 11.88L6.69 11.88L6.69 11.88Q5.81 12.39 4.73 12.39L4.73 12.39L4.73 12.39Q3.65 12.39 2.77 11.88L2.77 11.88L2.77 11.88Q1.88 11.37 1.37 10.48L1.37 10.48L1.37 10.48Q0.87 9.59 0.87 8.50L0.87 8.50L0.87 8.50Q0.87 7.41 1.34 6.52L1.34 6.52L1.34 6.52Q1.81 5.63 2.63 5.12L2.63 5.12L2.63 5.12Q3.44 4.62 4.45 4.62L4.45 4.62L4.45 4.62Q5.26 4.62 5.96 4.96L5.96 4.96L5.96 4.96Q6.66 5.29 7.15 5.89L7.15 5.89L7.15 2.11L7.15 2.11Q7.15 1.79 7.36 1.60L7.36 1.60L7.36 1.60Q7.56 1.40 7.87 1.40L7.87 1.40ZM4.73 11.13L4.73 11.13Q5.43 11.13 6.00 10.79L6.00 10.79L6.00 10.79Q6.57 10.44 6.89 9.84L6.89 9.84L6.89 9.84Q7.21 9.24 7.21 8.50L7.21 8.50L7.21 8.50Q7.21 7.76 6.89 7.16L6.89 7.16L6.89 7.16Q6.57 6.57 6.00 6.22L6.00 6.22L6.00 6.22Q5.43 5.88 4.73 5.88L4.73 5.88L4.73 5.88Q4.03 5.88 3.46 6.22L3.46 6.22L3.46 6.22Q2.90 6.57 2.57 7.16L2.57 7.16L2.57 7.16Q2.24 7.76 2.24 8.50L2.24 8.50L2.24 8.50Q2.24 9.24 2.57 9.84L2.57 9.84L2.57 9.84Q2.90 10.44 3.46 10.79L3.46 10.79L3.46 10.79Q4.03 11.13 4.73 11.13L4.73 11.13ZM14.57 4.62L14.57 4.62Q15.68 4.62 16.55 5.12L16.55 5.12L16.55 5.12Q17.43 5.61 17.93 6.50L17.93 6.50L17.93 6.50Q18.42 7.38 18.42 8.51L18.42 8.51L18.42 8.51Q18.42 9.63 17.93 10.51L17.93 10.51L17.93 10.51Q17.44 11.40 16.57 11.89L16.57 11.89L16.57 11.89Q15.69 12.39 14.57 12.39L14.57 12.39L14.57 12.39Q13.45 12.39 12.57 11.89L12.57 11.89L12.57 11.89Q11.69 11.40 11.20 10.51L11.20 10.51L11.20 10.51Q10.71 9.63 10.71 8.51L10.71 8.51L10.71 8.51Q10.71 7.38 11.20 6.50L11.20 6.50L11.20 6.50Q11.69 5.61 12.57 5.12L12.57 5.12L12.57 5.12Q13.45 4.62 14.57 4.62L14.57 4.62ZM14.57 5.88L14.57 5.88Q13.86 5.88 13.29 6.22L13.29 6.22L13.29 6.22Q12.73 6.55 12.40 7.15L12.40 7.15L12.40 7.15Q12.08 7.76 12.08 8.51L12.08 8.51L12.08 8.51Q12.08 9.27 12.40 9.86L12.40 9.86L12.40 9.86Q12.73 10.46 13.29 10.79L13.29 10.79L13.29 10.79Q13.86 11.13 14.57 11.13L14.57 11.13L14.57 11.13Q15.29 11.13 15.86 10.79L15.86 10.79L15.86 10.79Q16.42 10.46 16.74 9.86L16.74 9.86L16.74 9.86Q17.05 9.27 17.05 8.51L17.05 8.51L17.05 8.51Q17.05 7.76 16.74 7.15L16.74 7.15L16.74 7.15Q16.42 6.55 15.86 6.22L15.86 6.22L15.86 6.22Q15.29 5.88 14.57 5.88L14.57 5.88ZM21.27 1.40L21.27 1.40Q20.94 1.40 20.75 1.60L20.75 1.60L20.75 1.60Q20.55 1.79 20.55 2.11L20.55 2.11L20.55 8.50L20.55 8.50Q20.55 9.59 21.06 10.48L21.06 10.48L21.06 10.48Q21.57 11.37 22.45 11.88L22.45 11.88L22.45 11.88Q23.32 12.39 24.40 12.39L24.40 12.39L24.40 12.39Q25.48 12.39 26.37 11.88L26.37 11.88L26.37 11.88Q27.26 11.37 27.76 10.48L27.76 10.48L27.76 10.48Q28.27 9.59 28.27 8.50L28.27 8.50L28.27 8.50Q28.27 7.41 27.80 6.52L27.80 6.52L27.80 6.52Q27.33 5.63 26.51 5.12L26.51 5.12L26.51 5.12Q25.69 4.62 24.68 4.62L24.68 4.62L24.68 4.62Q23.87 4.62 23.17 4.96L23.17 4.96L23.17 4.96Q22.47 5.29 21.98 5.89L21.98 5.89L21.98 2.11L21.98 2.11Q21.98 1.79 21.78 1.60L21.78 1.60L21.78 1.60Q21.57 1.40 21.27 1.40L21.27 1.40ZM24.40 11.13L24.40 11.13Q23.70 11.13 23.14 10.79L23.14 10.79L23.14 10.79Q22.57 10.44 22.25 9.84L22.25 9.84L22.25 9.84Q21.92 9.24 21.92 8.50L21.92 8.50L21.92 8.50Q21.92 7.76 22.25 7.16L22.25 7.16L22.25 7.16Q22.57 6.57 23.14 6.22L23.14 6.22L23.14 6.22Q23.70 5.88 24.40 5.88L24.40 5.88L24.40 5.88Q25.10 5.88 25.67 6.22L25.67 6.22L25.67 6.22Q26.24 6.57 26.57 7.16L26.57 7.16L26.57 7.16Q26.89 7.76 26.89 8.50L26.89 8.50L26.89 8.50Q26.89 9.24 26.57 9.84L26.57 9.84L26.57 9.84Q26.24 10.44 25.67 10.79L25.67 10.79L25.67 10.79Q25.10 11.13 24.40 11.13L24.40 11.13ZM31.11 1.40L31.11 1.40Q30.79 1.40 30.59 1.60L30.59 1.60L30.59 1.60Q30.39 1.79 30.39 2.11L30.39 2.11L30.39 8.50L30.39 8.50Q30.39 9.59 30.91 10.48L30.91 10.48L30.91 10.48Q31.42 11.37 32.29 11.88L32.29 11.88L32.29 11.88Q33.17 12.39 34.24 12.39L34.24 12.39L34.24 12.39Q35.32 12.39 36.21 11.88L36.21 11.88L36.21 11.88Q37.10 11.37 37.60 10.48L37.60 10.48L37.60 10.48Q38.11 9.59 38.11 8.50L38.11 8.50L38.11 8.50Q38.11 7.41 37.64 6.52L37.64 6.52L37.64 6.52Q37.17 5.63 36.35 5.12L36.35 5.12L36.35 5.12Q35.53 4.62 34.52 4.62L34.52 4.62L34.52 4.62Q33.71 4.62 33.01 4.96L33.01 4.96L33.01 4.96Q32.31 5.29 31.82 5.89L31.82 5.89L31.82 2.11L31.82 2.11Q31.82 1.79 31.62 1.60L31.62 1.60L31.62 1.60Q31.42 1.40 31.11 1.40L31.11 1.40ZM34.24 11.13L34.24 11.13Q33.54 11.13 32.98 10.79L32.98 10.79L32.98 10.79Q32.41 10.44 32.09 9.84L32.09 9.84L32.09 9.84Q31.77 9.24 31.77 8.50L31.77 8.50L31.77 8.50Q31.77 7.76 32.09 7.16L32.09 7.16L32.09 7.16Q32.41 6.57 32.98 6.22L32.98 6.22L32.98 6.22Q33.54 5.88 34.24 5.88L34.24 5.88L34.24 5.88Q34.94 5.88 35.51 6.22L35.51 6.22L35.51 6.22Q36.08 6.57 36.41 7.16L36.41 7.16L36.41 7.16Q36.74 7.76 36.74 8.50L36.74 8.50L36.74 8.50Q36.74 9.24 36.41 9.84L36.41 9.84L36.41 9.84Q36.08 10.44 35.51 10.79L35.51 10.79L35.51 10.79Q34.94 11.13 34.24 11.13L34.24 11.13ZM47.11 8.39L47.11 8.39Q47.11 8.65 46.93 8.83L46.93 8.83L46.93 8.83Q46.75 9.00 46.47 9.00L46.47 9.00L41.15 9.00L41.15 9.00Q41.30 9.98 42.03 10.58L42.03 10.58L42.03 10.58Q42.77 11.19 43.83 11.19L43.83 11.19L43.83 11.19Q44.25 11.19 44.71 11.03L44.71 11.03L44.71 11.03Q45.16 10.88 45.46 10.65L45.46 10.65L45.46 10.65Q45.65 10.50 45.92 10.50L45.92 10.50L45.92 10.50Q46.19 10.50 46.34 10.64L46.34 10.64L46.34 10.64Q46.59 10.85 46.59 11.12L46.59 11.12L46.59 11.12Q46.59 11.37 46.37 11.54L46.37 11.54L46.37 11.54Q45.89 11.91 45.19 12.15L45.19 12.15L45.19 12.15Q44.48 12.39 43.83 12.39L43.83 12.39L43.83 12.39Q42.69 12.39 41.78 11.89L41.78 11.89L41.78 11.89Q40.87 11.40 40.35 10.51L40.35 10.51L40.35 10.51Q39.84 9.63 39.84 8.51L39.84 8.51L39.84 8.51Q39.84 7.39 40.33 6.50L40.33 6.50L40.33 6.50Q40.81 5.61 41.67 5.12L41.67 5.12L41.67 5.12Q42.53 4.62 43.62 4.62L43.62 4.62L43.62 4.62Q44.70 4.62 45.49 5.10L45.49 5.10L45.49 5.10Q46.27 5.57 46.69 6.43L46.69 6.43L46.69 6.43Q47.11 7.28 47.11 8.39L47.11 8.39ZM43.62 5.82L43.62 5.82Q42.60 5.82 41.96 6.38L41.96 6.38L41.96 6.38Q41.33 6.94 41.16 7.88L41.16 7.88L45.82 7.88L45.82 7.88Q45.70 6.94 45.12 6.38L45.12 6.38L45.12 6.38Q44.55 5.82 43.62 5.82L43.62 5.82ZM52.68 4.59L52.68 4.59Q53.42 4.59 53.84 4.82L53.84 4.82L53.84 4.82Q54.26 5.04 54.26 5.38L54.26 5.38L54.26 5.38Q54.26 5.47 54.25 5.52L54.25 5.52L54.25 5.52Q54.12 5.96 53.69 5.96L53.69 5.96L53.69 5.96Q53.62 5.96 53.48 5.94L53.48 5.94L53.48 5.94Q52.92 5.84 52.57 5.84L52.57 5.84L52.57 5.84Q51.56 5.84 50.95 6.30L50.95 6.30L50.95 6.30Q50.33 6.76 50.33 7.55L50.33 7.55L50.33 11.63L50.33 11.63Q50.33 11.97 50.16 12.15L50.16 12.15L50.16 12.15Q49.98 12.33 49.63 12.33L49.63 12.33L49.63 12.33Q49.29 12.33 49.11 12.16L49.11 12.16L49.11 12.16Q48.93 11.98 48.93 11.63L48.93 11.63L48.93 5.38L48.93 5.38Q48.93 5.04 49.11 4.86L49.11 4.86L49.11 4.86Q49.29 4.68 49.63 4.68L49.63 4.68L49.63 4.68Q50.33 4.68 50.33 5.38L50.33 5.38L50.33 5.64L50.33 5.64Q50.75 5.15 51.37 4.87L51.37 4.87L51.37 4.87Q51.98 4.59 52.68 4.59L52.68 4.59Z"></path></g><!----><g data-v-423bf9ae="" id="8085fbaa-f411-4cf0-b270-a77cb11e9867" transform="matrix(2.8125,0,0,2.8125,0,0)" stroke="none" fill="black"><path d="M9.382 8.675h13.943v13.943L32 31.293V0H.707zM22.618 23.325H8.675V9.382L0 .707V32h31.293z"></path></g><!----></svg>