<svg data-v-423bf9ae="" xmlns="http://www.w3.org/2000/svg" viewBox="0 0 267.94766803615823 60" class="font"><!----><!----><!----><g data-v-423bf9ae="" id="2453cc00-6e0e-47ed-9148-c9ee8cde6e6f" fill="white" transform="matrix(6.036216979508284,0,0,6.036216979508284,-5.070421610100766,-47.14285474140175)"><path d="M2.48 14.88L5.85 14.88L5.85 16.56L2.20 16.56L2.20 15.16L0.84 15.95L0.84 16.81L2.46 17.75L5.59 17.75L7.21 16.81L7.21 14.60L5.59 13.66L2.48 13.66L2.48 12.47L5.17 12.47L6.79 11.54L6.79 9.60L5.94 9.10L7.21 8.36L7.21 7.88L2.74 7.88L1.12 8.82L1.12 11.69L2.11 12.26L1.12 12.84L1.12 14.10ZM2.48 9.07L5.43 9.07L5.43 11.28L2.48 11.28ZM10.25 12.01L13.06 12.01L13.06 13.73L10.25 13.73ZM10.51 14.95L12.07 14.95L13.06 14.38L14.06 14.95L14.42 14.95L14.42 8.82L12.80 7.88L9.59 7.88L9.59 9.10L13.06 9.10L13.06 10.79L10.51 10.79L8.89 11.73L8.89 14.01ZM26.08 8.75L24.46 7.81L23.04 7.81L21.73 8.57L20.43 7.81L19.01 7.81L18.02 8.39L17.68 7.81L16.66 7.81L16.66 14.88L18.02 14.88L18.02 9.03L20.69 9.03L20.69 14.88L22.05 14.88L22.05 9.03L24.72 9.03L24.72 14.88L26.08 14.88ZM37.74 8.75L36.12 7.81L34.71 7.81L33.39 8.57L32.09 7.81L30.67 7.81L29.68 8.39L29.34 7.81L28.32 7.81L28.32 14.88L29.68 14.88L29.68 9.03L32.35 9.03L32.35 14.88L33.71 14.88L33.71 9.03L36.39 9.03L36.39 14.88L37.74 14.88ZM41.06 12.01L43.88 12.01L43.88 13.73L41.06 13.73ZM41.33 14.95L42.88 14.95L43.88 14.38L44.87 14.95L45.23 14.95L45.23 8.82L43.61 7.88L40.40 7.88L40.40 9.10L43.88 9.10L43.88 10.79L41.33 10.79L39.70 11.73L39.70 14.01Z"></path></g><!----><!----></svg>