<svg data-v-423bf9ae="" xmlns="http://www.w3.org/2000/svg" viewBox="0 0 589 90" class="iconLeft"><!----><!----><!----><g data-v-423bf9ae="" id="698ec575-1093-42b6-822a-9b39a10e96f3" fill="white" transform="matrix(5.819592391658763,0,0,5.819592391658763,108.42870403310843,-38.48205116050873)"><path d="M0.97 17.24L0.97 17.24L0.97 17.24Q0.27 16.13 0.27 14.65L0.27 14.65L0.27 14.65Q0.27 13.17 1.00 12.02L1.00 12.02L1.00 12.02Q1.74 10.88 3.00 10.27L3.00 10.27L3.00 10.27Q4.25 9.66 5.79 9.66L5.79 9.66L5.79 9.66Q7.11 9.66 8.29 10.07L8.29 10.07L8.29 10.07Q8.89 10.28 9.27 10.67L9.27 10.67L9.27 10.67Q9.65 11.07 9.65 11.57L9.65 11.57L9.65 11.57Q9.65 12.08 9.33 12.33L9.33 12.33L9.33 12.33Q9.02 12.57 8.59 12.57L8.59 12.57L8.59 12.57Q8.16 12.57 7.98 12.50L7.98 12.50L7.98 12.50Q7.90 11.44 7.36 10.92L7.36 10.92L7.36 10.92Q6.82 10.40 5.76 10.40L5.76 10.40L5.76 10.40Q3.96 10.40 2.90 11.48L2.90 11.48L2.90 11.48Q1.83 12.56 1.83 14.29L1.83 14.29L1.83 14.29Q1.83 15.46 2.34 16.42L2.34 16.42L2.34 16.42Q2.84 17.38 3.76 17.94L3.76 17.94L3.76 17.94Q4.67 18.50 5.81 18.50L5.81 18.50L5.81 18.50Q6.58 18.50 7.18 18.33L7.18 18.33L7.18 18.33Q8.31 17.99 8.33 17.49L8.33 17.49L8.33 17.49Q8.33 17.30 8.33 17.04L8.33 17.04L8.33 16.22L8.33 16.22Q8.33 16.11 8.29 15.87L8.29 15.87L8.29 15.87Q8.25 15.62 8.24 15.51L8.24 15.51L8.24 15.51Q8.23 15.40 8.06 15.30L8.06 15.30L8.06 15.30Q7.88 15.20 7.68 15.16L7.68 15.16L7.68 15.16Q7.15 15.05 7.15 14.88L7.15 14.88L7.15 14.88Q7.15 14.72 7.22 14.60L7.22 14.60L7.22 14.60Q7.29 14.49 7.45 14.42L7.45 14.42L7.45 14.42Q7.60 14.36 7.75 14.31L7.75 14.31L7.75 14.31Q7.90 14.27 8.16 14.25L8.16 14.25L8.16 14.25Q8.51 14.23 9.21 14.23L9.21 14.23L9.21 14.23Q9.91 14.23 10.18 14.27L10.18 14.27L10.18 14.27Q10.82 14.40 10.82 14.87L10.82 14.87L10.82 14.87Q10.82 14.97 10.73 15.01L10.73 15.01L10.73 15.01Q10.63 15.05 10.58 15.07L10.58 15.07L10.58 15.07Q10.53 15.09 10.45 15.11L10.45 15.11L10.45 15.11Q9.88 15.24 9.77 15.49L9.77 15.49L9.77 15.49Q9.65 15.74 9.66 16.36L9.66 16.36L9.68 18.27L9.68 18.27Q9.43 18.34 8.95 18.60L8.95 18.60L8.95 18.60Q8.46 18.87 8.27 18.95L8.27 18.95L8.27 18.95Q6.96 19.50 5.52 19.50L5.52 19.50L5.52 19.50Q4.08 19.50 2.88 18.93L2.88 18.93L2.88 18.93Q1.67 18.35 0.97 17.24ZM14.32 19.49L14.32 19.49L14.32 19.49Q12.78 19.49 11.83 18.52L11.83 18.52L11.83 18.52Q10.89 17.54 10.89 16.04L10.89 16.04L10.89 16.04Q10.89 15.05 11.39 14.27L11.39 14.27L11.39 14.27Q11.89 13.49 12.74 13.07L12.74 13.07L12.74 13.07Q13.59 12.66 14.64 12.66L14.64 12.66L14.64 12.66Q16.14 12.66 17.12 13.60L17.12 13.60L17.12 13.60Q18.09 14.53 18.09 16.02L18.09 16.02L18.09 16.02Q18.09 17.04 17.59 17.84L17.59 17.84L17.59 17.84Q17.09 18.63 16.24 19.06L16.24 19.06L16.24 19.06Q15.38 19.49 14.32 19.49ZM14.60 18.73L14.60 18.73L14.60 18.73Q15.62 18.73 16.19 18.04L16.19 18.04L16.19 18.04Q16.76 17.35 16.76 16.20L16.76 16.20L16.76 16.20Q16.76 15.05 16.11 14.22L16.11 14.22L16.11 14.22Q15.45 13.38 14.42 13.38L14.42 13.38L14.42 13.38Q13.39 13.38 12.84 14.09L12.84 14.09L12.84 14.09Q12.28 14.79 12.28 15.93L12.28 15.93L12.28 15.93Q12.28 17.08 12.93 17.90L12.93 17.90L12.93 17.90Q13.58 18.73 14.60 18.73ZM20.70 19.32L20.70 19.32L20.11 19.33L20.11 19.33Q19.22 19.33 19.00 19.05L19.00 19.05L19.00 19.05Q18.91 18.93 18.91 18.75L18.91 18.75L18.91 18.75Q18.91 18.58 19.04 18.51L19.04 18.51L19.04 18.51Q19.18 18.44 19.35 18.44L19.35 18.44L19.35 18.44Q19.51 18.43 19.65 18.33L19.65 18.33L19.65 18.33Q19.78 18.23 19.78 18.01L19.78 18.01L19.78 10.79L19.78 10.79Q19.78 10.17 19.29 10.12L19.29 10.12L19.29 10.12Q19.24 10.12 19.17 10.11L19.17 10.11L19.17 10.11Q19.09 10.10 19.06 10.10L19.06 10.10L19.06 10.10Q19.02 10.10 18.97 10.09L18.97 10.09L18.97 10.09Q18.92 10.08 18.90 10.06L18.90 10.06L18.90 10.06Q18.87 10.05 18.85 10.03L18.85 10.03L18.85 10.03Q18.81 9.99 18.81 9.83L18.81 9.83L18.81 9.83Q18.81 9.67 19.02 9.50L19.02 9.50L19.02 9.50Q19.40 9.19 20.05 9.19L20.05 9.19L20.05 9.19Q20.74 9.19 20.86 9.27L20.86 9.27L20.86 9.27Q21.09 9.43 21.09 9.70L21.09 9.70L21.09 18.01L21.09 18.01Q21.09 18.41 21.53 18.43L21.53 18.43L21.53 18.43Q21.97 18.46 21.97 18.79L21.97 18.79L21.97 18.79Q21.97 19.16 21.56 19.25L21.56 19.25L21.56 19.25Q21.25 19.32 20.70 19.32ZM28.01 14.18L28.01 14.18Q27.73 13.81 27.19 13.59L27.19 13.59L27.19 13.59Q26.65 13.36 25.99 13.36L25.99 13.36L25.99 13.36Q25.33 13.36 24.86 13.75L24.86 13.75L24.86 13.75Q23.96 14.49 23.96 15.95L23.96 15.95L23.96 15.95Q23.96 17.08 24.57 17.86L24.57 17.86L24.57 17.86Q25.18 18.64 26.16 18.64L26.16 18.64L26.16 18.64Q27.15 18.64 27.58 18.23L27.58 18.23L27.58 18.23Q28.01 17.83 28.01 16.88L28.01 16.88L28.01 14.18ZM26.13 12.63L26.13 12.63L26.13 12.63Q26.58 12.63 27.14 12.77L27.14 12.77L27.14 12.77Q27.69 12.92 28.01 13.08L28.01 13.08L28.01 10.79L28.01 10.79Q28.01 10.17 27.52 10.12L27.52 10.12L27.52 10.12Q27.47 10.12 27.40 10.11L27.40 10.11L27.40 10.11Q27.32 10.10 27.29 10.10L27.29 10.10L27.29 10.10Q27.25 10.10 27.20 10.09L27.20 10.09L27.20 10.09Q27.15 10.08 27.13 10.06L27.13 10.06L27.13 10.06Q27.10 10.05 27.08 10.03L27.08 10.03L27.08 10.03Q27.04 9.99 27.04 9.83L27.04 9.83L27.04 9.83Q27.04 9.67 27.25 9.50L27.25 9.50L27.25 9.50Q27.63 9.19 28.28 9.19L28.28 9.19L28.28 9.19Q28.97 9.19 29.09 9.27L29.09 9.27L29.09 9.27Q29.32 9.43 29.32 9.70L29.32 9.70L29.32 17.18L29.32 17.18Q29.32 17.94 29.48 18.16L29.48 18.16L29.48 18.16Q29.65 18.38 29.79 18.43L29.79 18.43L29.79 18.43Q29.92 18.48 30.02 18.51L30.02 18.51L30.02 18.51Q30.12 18.55 30.16 18.56L30.16 18.56L30.16 18.56Q30.20 18.58 30.26 18.62L30.26 18.62L30.26 18.62Q30.37 18.68 30.37 18.81L30.37 18.81L30.37 18.81Q30.37 19.10 30.07 19.23L30.07 19.23L30.07 19.23Q29.76 19.37 29.26 19.37L29.26 19.37L29.26 19.37Q28.76 19.37 28.53 19.17L28.53 19.17L28.53 19.17Q28.31 18.98 28.14 18.47L28.14 18.47L28.14 18.47Q27.58 19.46 25.80 19.46L25.80 19.46L25.80 19.46Q24.38 19.46 23.48 18.52L23.48 18.52L23.48 18.52Q22.59 17.58 22.59 16.07L22.59 16.07L22.59 16.07Q22.59 14.57 23.58 13.60L23.58 13.60L23.58 13.60Q24.58 12.63 26.13 12.63ZM34.24 17.48L34.24 13.66L33.82 13.67L33.82 13.67Q33.57 13.67 33.46 13.62L33.46 13.62L33.46 13.62Q33.34 13.57 33.34 13.42L33.34 13.42L33.34 13.42Q33.34 13.26 33.47 13.14L33.47 13.14L33.47 13.14Q33.61 13.01 33.78 12.94L33.78 12.94L33.78 12.94Q34.25 12.75 34.34 12.62L34.34 12.62L34.34 12.62Q34.43 12.48 34.62 12.03L34.62 12.03L34.62 12.03Q35.08 10.90 35.38 10.90L35.38 10.90L35.38 10.90Q35.54 10.90 35.56 11.24L35.56 11.24L35.56 11.24Q35.59 11.58 35.59 11.76L35.59 11.76L35.59 11.76Q35.59 11.94 35.59 12.29L35.59 12.29L35.59 12.29Q35.58 12.64 35.58 12.78L35.58 12.78L37.21 12.78L37.21 12.78Q37.45 12.78 37.61 12.90L37.61 12.90L37.61 12.90Q37.78 13.02 37.78 13.22L37.78 13.22L37.78 13.22Q37.78 13.42 37.61 13.53L37.61 13.53L37.61 13.53Q37.45 13.64 37.21 13.64L37.21 13.64L35.58 13.64L35.57 17.13L35.57 17.13Q35.57 18.61 36.32 18.61L36.32 18.61L36.32 18.61Q36.52 18.61 36.93 18.49L36.93 18.49L36.93 18.49Q37.33 18.36 37.45 18.36L37.45 18.36L37.45 18.36Q37.73 18.36 37.73 18.68L37.73 18.68L37.73 18.68Q37.73 18.94 37.07 19.19L37.07 19.19L37.07 19.19Q36.42 19.44 35.72 19.44L35.72 19.44L35.72 19.44Q35.03 19.44 34.63 18.90L34.63 18.90L34.63 18.90Q34.24 18.36 34.24 17.48L34.24 17.48ZM45.58 19.32L45.58 19.32L44.99 19.33L44.99 19.33Q44.10 19.33 43.89 19.05L43.89 19.05L43.89 19.05Q43.79 18.93 43.79 18.75L43.79 18.75L43.79 18.75Q43.79 18.58 43.93 18.51L43.93 18.51L43.93 18.51Q44.06 18.44 44.23 18.44L44.23 18.44L44.23 18.44Q44.40 18.43 44.54 18.33L44.54 18.33L44.54 18.33Q44.67 18.23 44.67 18.01L44.67 18.01L44.68 16.02L44.68 16.02Q44.68 14.77 44.38 14.17L44.38 14.17L44.38 14.17Q44.05 13.50 43.01 13.50L43.01 13.50L43.01 13.50Q41.92 13.50 41.48 14.19L41.48 14.19L41.48 14.19Q41.08 14.83 41.08 16.06L41.08 16.06L41.08 18.01L41.08 18.01Q41.08 18.41 41.52 18.43L41.52 18.43L41.52 18.43Q41.97 18.46 41.97 18.79L41.97 18.79L41.97 18.79Q41.97 19.16 41.55 19.25L41.55 19.25L41.55 19.25Q41.25 19.32 40.69 19.32L40.69 19.32L40.11 19.33L40.11 19.33Q39.21 19.33 39.00 19.05L39.00 19.05L39.00 19.05Q38.90 18.93 38.90 18.75L38.90 18.75L38.90 18.75Q38.90 18.58 39.04 18.51L39.04 18.51L39.04 18.51Q39.18 18.44 39.34 18.44L39.34 18.44L39.34 18.44Q39.51 18.43 39.65 18.33L39.65 18.33L39.65 18.33Q39.79 18.23 39.79 18.01L39.79 18.01L39.79 10.57L39.79 10.57Q39.79 10.17 39.29 10.09L39.29 10.09L39.29 10.09Q38.95 10.04 38.88 9.97L38.88 9.97L38.88 9.97Q38.81 9.91 38.81 9.75L38.81 9.75L38.81 9.75Q38.81 9.60 38.95 9.48L38.95 9.48L38.95 9.48Q39.09 9.36 39.33 9.30L39.33 9.30L39.33 9.30Q39.74 9.19 40.24 9.19L40.24 9.19L40.24 9.19Q41.09 9.19 41.09 9.70L41.09 9.70L41.09 13.67L41.09 13.67Q42.02 12.62 43.44 12.62L43.44 12.62L43.44 12.62Q44.86 12.62 45.42 13.35L45.42 13.35L45.42 13.35Q45.98 14.08 45.98 15.55L45.98 15.55L45.97 18.01L45.97 18.01Q45.97 18.41 46.41 18.43L46.41 18.43L46.41 18.43Q46.85 18.46 46.85 18.79L46.85 18.79L46.85 18.79Q46.85 19.16 46.44 19.25L46.44 19.25L46.44 19.25Q46.13 19.32 45.58 19.32ZM49.59 19.32L49.59 19.32L49 19.33L49 19.33Q48.10 19.33 47.89 19.05L47.89 19.05L47.89 19.05Q47.80 18.93 47.80 18.75L47.80 18.75L47.80 18.75Q47.80 18.58 47.93 18.51L47.93 18.51L47.93 18.51Q48.07 18.44 48.24 18.44L48.24 18.44L48.24 18.44Q48.41 18.43 48.54 18.33L48.54 18.33L48.54 18.33Q48.68 18.23 48.68 18.01L48.68 18.01L48.68 14.64L48.68 14.64Q48.68 14.03 48.53 13.88L48.53 13.88L48.53 13.88Q48.38 13.74 48.29 13.70L48.29 13.70L48.29 13.70Q48.19 13.66 47.97 13.60L47.97 13.60L47.97 13.60Q47.76 13.54 47.63 13.47L47.63 13.47L47.63 13.47Q47.50 13.41 47.50 13.29L47.50 13.29L47.50 13.29Q47.50 12.74 48.97 12.74L48.97 12.74L48.97 12.74Q49.59 12.74 49.76 12.96L49.76 12.96L49.76 12.96Q49.92 13.17 49.92 13.95L49.92 13.95L49.92 13.95Q50.16 13.36 50.69 13.03L50.69 13.03L50.69 13.03Q51.23 12.69 51.79 12.69L51.79 12.69L51.79 12.69Q52.36 12.69 52.72 12.94L52.72 12.94L52.72 12.94Q53.09 13.18 53.09 13.55L53.09 13.55L53.09 13.55Q53.09 13.92 52.85 14.15L52.85 14.15L52.85 14.15Q52.61 14.37 52.26 14.37L52.26 14.37L52.26 14.37Q51.91 14.37 51.66 14.18L51.66 14.18L51.66 14.18Q51.41 14 51.34 13.71L51.34 13.71L51.34 13.71Q51.16 13.68 51.04 13.68L51.04 13.68L51.04 13.68Q49.98 13.68 49.98 16.13L49.98 16.13L49.98 18.01L49.98 18.01Q49.98 18.41 50.42 18.43L50.42 18.43L50.42 18.43Q50.86 18.46 50.86 18.79L50.86 18.79L50.86 18.79Q50.86 19.16 50.45 19.25L50.45 19.25L50.45 19.25Q50.13 19.32 49.59 19.32ZM54.46 18.57L54.46 18.57L54.46 18.57Q53.51 17.64 53.51 16.11L53.51 16.11L53.51 16.11Q53.51 14.57 54.47 13.61L54.47 13.61L54.47 13.61Q55.42 12.65 56.90 12.65L56.90 12.65L56.90 12.65Q58.06 12.65 58.87 13.40L58.87 13.40L58.87 13.40Q59.67 14.16 59.67 15.30L59.67 15.30L59.67 15.30Q59.67 15.85 58.80 15.85L58.80 15.85L54.84 15.85L54.84 15.85Q54.85 16.96 55.56 17.72L55.56 17.72L55.56 17.72Q56.26 18.48 57.33 18.48L57.33 18.48L57.33 18.48Q58.04 18.48 58.71 18.06L58.71 18.06L58.71 18.06Q59.07 17.84 59.17 17.84L59.17 17.84L59.17 17.84Q59.27 17.84 59.39 17.94L59.39 17.94L59.39 17.94Q59.52 18.04 59.52 18.18L59.52 18.18L59.52 18.18Q59.52 18.56 59.04 18.88L59.04 18.88L59.04 18.88Q58.56 19.20 57.98 19.35L57.98 19.35L57.98 19.35Q57.39 19.50 56.96 19.50L56.96 19.50L56.96 19.50Q55.41 19.50 54.46 18.57ZM58.41 15.13L58.41 15.13L58.41 15.13Q58.40 14.35 58.00 13.86L58.00 13.86L58.00 13.86Q57.61 13.36 56.84 13.36L56.84 13.36L56.84 13.36Q56.08 13.36 55.51 13.91L55.51 13.91L55.51 13.91Q54.94 14.46 54.91 15.16L54.91 15.16L56.51 15.16L56.51 15.16Q57.57 15.16 58.41 15.13ZM61.72 14.98L61.72 14.98L61.72 14.98Q61.46 14.98 61.14 14.78L61.14 14.78L61.14 14.78Q60.83 14.58 60.83 14.26L60.83 14.26L60.83 14.26Q60.83 13.93 61.01 13.64L61.01 13.64L61.01 13.64Q61.20 13.36 61.49 13.18L61.49 13.18L61.49 13.18Q61.78 13.00 62.17 12.87L62.17 12.87L62.17 12.87Q62.88 12.65 63.70 12.65L63.70 12.65L63.70 12.65Q65.08 12.65 65.71 13.26L65.71 13.26L65.71 13.26Q66.34 13.87 66.34 15.28L66.34 15.28L66.33 17.29L66.33 17.29Q66.33 18.03 66.51 18.21L66.51 18.21L66.51 18.21Q66.56 18.26 66.81 18.33L66.81 18.33L66.81 18.33Q67.51 18.55 67.51 18.67L67.51 18.67L67.51 18.67Q67.51 19.39 66.04 19.39L66.04 19.39L66.04 19.39Q65.49 19.39 65.32 19.14L65.32 19.14L65.32 19.14Q65.15 18.89 65.14 18.25L65.14 18.25L65.14 18.25Q64.83 18.80 64.20 19.14L64.20 19.14L64.20 19.14Q63.57 19.48 62.86 19.48L62.86 19.48L62.86 19.48Q62.14 19.48 61.64 19.30L61.64 19.30L61.64 19.30Q61.14 19.11 60.83 18.70L60.83 18.70L60.83 18.70Q60.52 18.29 60.52 17.81L60.52 17.81L60.52 17.81Q60.52 17.33 60.63 17.04L60.63 17.04L60.63 17.04Q60.74 16.75 60.90 16.55L60.90 16.55L60.90 16.55Q61.07 16.35 61.35 16.19L61.35 16.19L61.35 16.19Q61.63 16.04 61.88 15.94L61.88 15.94L61.88 15.94Q62.13 15.85 62.51 15.78L62.51 15.78L62.51 15.78Q63.09 15.67 63.48 15.62L63.48 15.62L63.48 15.62Q63.87 15.58 63.88 15.57L63.88 15.57L63.88 15.57Q63.92 15.57 64.35 15.52L64.35 15.52L64.35 15.52Q64.78 15.48 65.02 15.34L65.02 15.34L65.02 15.34Q65.02 14.04 64.67 13.64L64.67 13.64L64.67 13.64Q64.37 13.30 63.66 13.30L63.66 13.30L63.66 13.30Q62.96 13.30 62.61 13.66L62.61 13.66L62.61 13.66Q62.25 14.02 62.25 14.80L62.25 14.80L62.26 14.95L62.26 14.95Q61.97 14.98 61.72 14.98ZM65.02 15.96L65.02 15.96L65.02 15.96Q64.56 16.13 63.97 16.19L63.97 16.19L63.97 16.19Q63.39 16.26 63.05 16.34L63.05 16.34L63.05 16.34Q62.72 16.43 62.49 16.56L62.49 16.56L62.49 16.56Q61.97 16.86 61.97 17.60L61.97 17.60L61.97 17.60Q61.97 18.77 63.34 18.77L63.34 18.77L63.34 18.77Q64.52 18.77 64.84 17.64L64.84 17.64L64.84 17.64Q65.02 17.00 65.02 15.96ZM73.38 14.18L73.38 14.18Q73.09 13.81 72.55 13.59L72.55 13.59L72.55 13.59Q72.02 13.36 71.35 13.36L71.35 13.36L71.35 13.36Q70.69 13.36 70.23 13.75L70.23 13.75L70.23 13.75Q69.32 14.49 69.32 15.95L69.32 15.95L69.32 15.95Q69.32 17.08 69.94 17.86L69.94 17.86L69.94 17.86Q70.55 18.64 71.53 18.64L71.53 18.64L71.53 18.64Q72.51 18.64 72.94 18.23L72.94 18.23L72.94 18.23Q73.38 17.83 73.38 16.88L73.38 16.88L73.38 14.18ZM71.49 12.63L71.49 12.63L71.49 12.63Q71.94 12.63 72.50 12.77L72.50 12.77L72.50 12.77Q73.06 12.92 73.38 13.08L73.38 13.08L73.38 10.79L73.38 10.79Q73.38 10.17 72.88 10.12L72.88 10.12L72.88 10.12Q72.84 10.12 72.76 10.11L72.76 10.11L72.76 10.11Q72.69 10.10 72.65 10.10L72.65 10.10L72.65 10.10Q72.62 10.10 72.57 10.09L72.57 10.09L72.57 10.09Q72.52 10.08 72.49 10.06L72.49 10.06L72.49 10.06Q72.47 10.05 72.45 10.03L72.45 10.03L72.45 10.03Q72.40 9.99 72.40 9.83L72.40 9.83L72.40 9.83Q72.40 9.67 72.61 9.50L72.61 9.50L72.61 9.50Q72.99 9.19 73.64 9.19L73.64 9.19L73.64 9.19Q74.33 9.19 74.45 9.27L74.45 9.27L74.45 9.27Q74.68 9.43 74.68 9.70L74.68 9.70L74.68 17.18L74.68 17.18Q74.68 17.94 74.85 18.16L74.85 18.16L74.85 18.16Q75.02 18.38 75.15 18.43L75.15 18.43L75.15 18.43Q75.28 18.48 75.38 18.51L75.38 18.51L75.38 18.51Q75.48 18.55 75.52 18.56L75.52 18.56L75.52 18.56Q75.56 18.58 75.63 18.62L75.63 18.62L75.63 18.62Q75.74 18.68 75.74 18.81L75.74 18.81L75.74 18.81Q75.74 19.10 75.43 19.23L75.43 19.23L75.43 19.23Q75.13 19.37 74.62 19.37L74.62 19.37L74.62 19.37Q74.12 19.37 73.90 19.17L73.90 19.17L73.90 19.17Q73.67 18.98 73.50 18.47L73.50 18.47L73.50 18.47Q72.94 19.46 71.16 19.46L71.16 19.46L71.16 19.46Q69.74 19.46 68.85 18.52L68.85 18.52L68.85 18.52Q67.96 17.58 67.96 16.07L67.96 16.07L67.96 16.07Q67.96 14.57 68.95 13.60L68.95 13.60L68.95 13.60Q69.94 12.63 71.49 12.63ZM79.59 18.70L79.59 18.70L79.59 18.70Q81.13 18.70 81.13 17.75L81.13 17.75L81.13 17.75Q81.13 17.04 79.74 16.64L79.74 16.64L79.74 16.64Q79.48 16.56 79.11 16.46L79.11 16.46L79.11 16.46Q78.42 16.28 78.18 16.18L78.18 16.18L78.18 16.18Q77.58 15.95 77.16 15.50L77.16 15.50L77.16 15.50Q76.75 15.06 76.75 14.45L76.75 14.45L76.75 14.45Q76.75 13.67 77.50 13.15L77.50 13.15L77.50 13.15Q78.24 12.63 79.30 12.63L79.30 12.63L79.30 12.63Q80.34 12.63 81.24 13.00L81.24 13.00L81.24 13.00Q81.68 13.19 81.96 13.51L81.96 13.51L81.96 13.51Q82.24 13.84 82.24 14.20L82.24 14.20L82.24 14.20Q82.24 14.55 81.95 14.77L81.95 14.77L81.95 14.77Q81.67 14.98 81.36 14.98L81.36 14.98L81.36 14.98Q81.06 14.98 80.96 14.92L80.96 14.92L80.96 14.92Q80.86 14.86 80.86 14.65L80.86 14.65L80.86 14.65Q80.86 13.33 79.46 13.33L79.46 13.33L79.46 13.33Q78.88 13.33 78.45 13.59L78.45 13.59L78.45 13.59Q78.02 13.84 78.02 14.25L78.02 14.25L78.02 14.25Q78.02 14.90 79.36 15.27L79.36 15.27L79.36 15.27Q79.57 15.33 79.87 15.40L79.87 15.40L79.87 15.40Q80.17 15.48 80.42 15.56L80.42 15.56L80.42 15.56Q80.68 15.64 80.95 15.75L80.95 15.75L80.95 15.75Q81.23 15.85 81.54 16.02L81.54 16.02L81.54 16.02Q81.85 16.19 82.04 16.39L82.04 16.39L82.04 16.39Q82.48 16.84 82.48 17.48L82.48 17.48L82.48 17.48Q82.48 18.12 82.05 18.59L82.05 18.59L82.05 18.59Q81.20 19.50 79.59 19.50L79.59 19.50L79.59 19.50Q78.54 19.50 77.66 19.15L77.66 19.15L77.66 19.15Q77.21 18.98 76.94 18.66L76.94 18.66L76.94 18.66Q76.67 18.35 76.67 17.99L76.67 17.99L76.67 17.99Q76.67 17.64 76.89 17.44L76.89 17.44L76.89 17.44Q77.12 17.25 77.40 17.25L77.40 17.25L77.40 17.25Q77.69 17.25 77.89 17.42L77.89 17.42L77.89 17.42Q78.09 17.60 78.09 17.87L78.09 17.87L78.09 17.87Q78.09 18.13 78.05 18.43L78.05 18.43L78.05 18.43Q78.77 18.70 79.59 18.70Z"></path></g><!----><g data-v-423bf9ae="" id="e178c646-db83-4380-8adf-e8514b1dafb6" transform="matrix(2.8125,0,0,2.8125,0,0)" stroke="none" fill="white"><path d="M29.625 1l-3.099 3.172H4.054v23.657h22.472L29.625 31H1V1h28.625M32 0H0v32h32l-5.054-5.172H5.054V5.172h21.893L32 0z"></path><path d="M21.038 10.962v10.076H10.962V10.962h10.076m1-1H9.962v12.076h12.076V9.962z"></path></g><!----></svg>