<svg data-v-423bf9ae="" xmlns="http://www.w3.org/2000/svg" viewBox="0 0 221.15384460872718 60" class="font"><!----><!----><!----><g data-v-423bf9ae="" id="c9d613bb-ea10-45b1-b148-8a40858a272e" fill="white" transform="matrix(5.494505456117445,0,0,5.494505456117445,-2.307693284224314,-23.516484028138628)"><path d="M0.62 8.76L0.42 8.25L0.42 8.25Q1.02 7.99 1.72 7.99L1.72 7.99L1.72 7.99Q2.41 7.99 2.86 8.16L2.86 8.16L2.86 8.16Q3.32 8.33 3.81 8.69L3.81 8.69L3.81 8.69Q4.31 8.19 4.84 7.99L4.84 7.99L4.84 7.99Q5.36 7.78 6.08 7.78L6.08 7.78L6.08 7.78Q7.50 7.78 7.98 8.88L7.98 8.88L7.98 8.88Q8.53 8.27 9.08 8.03L9.08 8.03L9.08 8.03Q9.63 7.78 10.52 7.78L10.52 7.78L10.52 7.78Q11.41 7.78 11.96 8.34L11.96 8.34L11.96 8.34Q12.52 8.89 12.52 9.84L12.52 9.84L12.52 13.44L12.52 13.44Q12.52 13.82 12.70 14.04L12.70 14.04L12.70 14.04Q12.88 14.25 13.26 14.25L13.26 14.25L13.26 14.25Q13.64 14.25 14.13 13.85L14.13 13.85L14.38 14.18L14.38 14.18Q13.26 15.20 12.14 15.20L12.14 15.20L12.14 15.20Q10.42 15.20 10.42 13.15L10.42 13.15L10.42 9.55L10.42 9.55Q10.42 9.11 10.16 8.88L10.16 8.88L10.16 8.88Q9.91 8.64 9.47 8.64L9.47 8.64L9.47 8.64Q9.03 8.64 8.60 9.02L8.60 9.02L8.60 9.02Q8.18 9.39 8.18 10.00L8.18 10.00L8.18 14.99L6.08 14.99L6.08 9.55L6.08 9.55Q6.08 9.11 5.82 8.88L5.82 8.88L5.82 8.88Q5.57 8.64 5.13 8.64L5.13 8.64L5.13 8.64Q4.69 8.64 4.26 9.02L4.26 9.02L4.26 9.02Q3.84 9.39 3.84 10.00L3.84 10.00L3.84 14.99L1.74 14.99L1.74 8.55L1.74 8.55Q1.11 8.55 0.62 8.76L0.62 8.76ZM20.36 7.99L22.46 7.99L22.46 13.44L22.46 13.44Q22.46 13.82 22.64 14.04L22.64 14.04L22.64 14.04Q22.82 14.25 23.20 14.25L23.20 14.25L23.20 14.25Q23.58 14.25 24.07 13.85L24.07 13.85L24.32 14.18L24.32 14.18Q23.20 15.20 22.08 15.20L22.08 15.20L22.08 15.20Q20.75 15.20 20.44 13.96L20.44 13.96L20.44 13.96Q19.71 15.20 18.30 15.20L18.30 15.20L18.30 15.20Q16.69 15.20 15.85 14.16L15.85 14.16L15.85 14.16Q15.01 13.12 15.01 11.50L15.01 11.50L15.01 11.50Q15.01 9.88 15.91 8.83L15.91 8.83L15.91 8.83Q16.81 7.78 18.44 7.78L18.44 7.78L18.44 7.78Q19.68 7.78 20.36 8.78L20.36 8.78L20.36 7.99ZM17.57 9.37L17.57 9.37L17.57 9.37Q17.18 10.15 17.18 11.49L17.18 11.49L17.18 11.49Q17.18 12.84 17.57 13.62L17.57 13.62L17.57 13.62Q17.96 14.41 18.77 14.41L18.77 14.41L18.77 14.41Q19.57 14.41 20.00 13.62L20.00 13.62L20.00 13.62Q20.43 12.82 20.43 11.49L20.43 11.49L20.43 11.49Q20.43 10.16 20.00 9.37L20.00 9.37L20.00 9.37Q19.57 8.58 18.77 8.58L18.77 8.58L18.77 8.58Q17.96 8.58 17.57 9.37ZM26.49 9.14L26.49 9.14L26.49 9.14Q26.15 8.62 26.15 8.22L26.15 8.22L26.15 8.22Q26.15 7.81 26.47 7.50L26.47 7.50L26.47 7.50Q26.78 7.18 27.23 7.18L27.23 7.18L27.23 7.18Q27.68 7.18 27.99 7.50L27.99 7.50L27.99 7.50Q28.31 7.81 28.31 8.25L28.31 8.25L28.31 8.25Q28.31 8.68 27.87 9.17L27.87 9.17L27.87 9.17Q29.02 10.01 29.64 10.81L29.64 10.81L29.64 10.81Q30.25 11.62 30.25 12.68L30.25 12.68L30.25 12.68Q30.25 13.73 29.46 14.47L29.46 14.47L29.46 14.47Q28.66 15.20 27.19 15.20L27.19 15.20L27.19 15.20Q26.52 15.20 25.84 14.91L25.84 14.91L25.84 14.91Q25.16 14.62 24.81 14.18L24.81 14.18L25.13 13.85L25.13 13.85Q25.75 14.34 26.46 14.34L26.46 14.34L26.46 14.34Q27.17 14.34 27.63 13.95L27.63 13.95L27.63 13.95Q28.08 13.57 28.08 12.75L28.08 12.75L28.08 12.75Q28.08 11.47 27.13 10.07L27.13 10.07L25.02 12.71L24.67 12.40L24.67 12.40Q25.73 10.68 26.49 9.14ZM34.33 5.14L34.33 5.14L34.33 8.74L34.33 8.74Q34.82 8.20 35.38 7.99L35.38 7.99L35.38 7.99Q35.95 7.78 36.83 7.78L36.83 7.78L36.83 7.78Q37.70 7.78 38.26 8.34L38.26 8.34L38.26 8.34Q38.81 8.89 38.81 9.84L38.81 9.84L38.81 13.44L38.81 13.44Q38.81 13.82 38.99 14.04L38.99 14.04L38.99 14.04Q39.17 14.25 39.55 14.25L39.55 14.25L39.55 14.25Q39.93 14.25 40.42 13.85L40.42 13.85L40.67 14.18L40.67 14.18Q39.55 15.20 38.43 15.20L38.43 15.20L38.43 15.20Q36.71 15.20 36.71 13.15L36.71 13.15L36.71 9.55L36.71 9.55Q36.71 9.11 36.44 8.88L36.44 8.88L36.44 8.88Q36.18 8.64 35.70 8.64L35.70 8.64L35.70 8.64Q35.22 8.64 34.78 9.03L34.78 9.03L34.78 9.03Q34.33 9.42 34.33 10.05L34.33 10.05L34.33 14.99L32.23 14.99L32.23 4.96L32.23 4.96Q31.46 5.15 31.05 5.64L31.05 5.64L30.67 5.21L30.67 5.21Q31.08 4.79 31.70 4.54L31.70 4.54L31.70 4.54Q32.33 4.28 32.94 4.28L32.94 4.28L32.94 4.28Q33.54 4.28 33.94 4.53L33.94 4.53L33.94 4.53Q34.33 4.77 34.33 5.14Z"></path></g><!----><!----></svg>