<svg data-v-423bf9ae="" xmlns="http://www.w3.org/2000/svg" viewBox="0 0 353.38779008731376 60" class="font"><!----><!----><!----><g data-v-423bf9ae="" id="03525183-cab0-4ba9-b97a-d9d30e387012" fill="white" transform="matrix(6.122449456230433,0,0,6.122449456230433,-0.0000016110396927615511,-11.816328097660907)"><path d="M0.15 9.38L0.15 1.98L2.32 1.98L2.32 1.98Q2.69 3.29 3.80 7.23L3.80 7.23L4.66 7.23L4.66 7.23Q4.70 7.23 4.94 6.30L4.94 6.30L4.94 6.30Q5.48 4.44 6.16 1.98L6.16 1.98L8.17 1.98L8.17 8.31L8.28 8.31L8.28 9.46L7.67 9.46L7.67 9.67L8.28 9.67L8.28 11.73L6.57 11.73L6.57 10.97L6.78 10.97L6.78 8.63L6.42 8.63L6.42 7.46L6.21 7.46L6.19 7.53L6.01 7.53L6.01 9.19L5.41 9.19L5.41 9.97L4.91 9.97L4.91 11.29L3.71 11.29L3.71 10.45L2.97 10.45L2.97 9.30L2.52 9.30L2.52 8.09L2.27 8.09L2.27 8.09Q2.26 8.00 2.11 7.46L2.11 7.46L3.83 7.46L3.79 7.23L2.06 7.23L2.11 7.46L1.88 7.46L1.88 8.98L1.99 8.98L1.99 10.64L1.57 10.64L1.57 10.94L1.99 10.94L1.99 11.38L0.44 11.38L0.44 9.38L0.15 9.38ZM1.88 6.54L1.86 6.54L1.86 6.66L1.86 6.66Q1.86 6.81 1.88 7.23L1.88 7.23L2.04 7.23L2.04 7.23Q1.88 6.58 1.88 6.54L1.88 6.54ZM6.44 6.56L6.42 6.56L6.28 7.23L6.42 7.23L6.42 7.23Q6.44 6.82 6.44 6.62L6.44 6.62L6.44 6.56ZM1.86 7.23L1.32 7.23L1.32 7.46L1.86 7.46L1.86 7.23ZM6.25 7.23L4.69 7.23L4.64 7.46L6.19 7.46L6.19 7.46Q6.25 7.29 6.25 7.23L6.25 7.23ZM7.62 7.23L6.44 7.23L6.44 7.46L7.62 7.46L7.62 7.23ZM4.61 7.46L3.87 7.46L3.87 7.46Q3.98 7.99 4.02 7.99L4.02 7.99L4.22 7.99L4.22 8.87L4.53 8.87L4.53 7.51L4.61 7.51L4.61 7.46ZM8.28 9.67L8.28 9.46L9.27 9.46L9.27 9.67L8.28 9.67ZM0 11.61L0 11.46L1.74 11.46L1.74 11.61L0 11.61ZM9.71 6.80L9.71 2.00L14.51 2.00L14.51 3.60L14.51 3.60Q14.51 3.63 14.47 3.63L14.47 3.63L11.63 3.63L11.63 5.74L14.18 5.74L14.18 5.76L14.18 5.76Q14.18 5.84 14.15 6.79L14.15 6.79L14.15 6.79Q14.13 6.79 14.13 6.80L14.13 6.80L14.25 6.80L14.25 7.29L12.04 7.29L12.04 9.29L11.44 9.29L11.44 9.49L12.04 9.49L12.04 10.10L14.54 10.10L14.54 10.32L14.34 10.32L14.34 11.52L11.35 11.52L11.35 11.73L9.93 11.73L9.93 8.24L9.71 8.24L9.71 7.01L8.16 7.01L8.16 6.80L9.71 6.80ZM10.53 6.80L9.73 6.80L9.73 7.01L10.53 7.01L10.53 6.80ZM14.99 3.57L14.99 1.93L20.73 1.93L20.73 3.57L18.83 3.57L18.83 10.34L19.69 10.34L19.69 10.54L18.83 10.54L18.83 11.29L18.32 11.29L18.32 11.55L18.68 11.55L18.68 11.73L16.94 11.73L16.94 11.73Q16.91 11.73 16.91 11.70L16.91 11.70L16.91 3.57L14.99 3.57ZM18.82 10.34L18.16 10.34L18.16 10.54L18.82 10.54L18.82 10.34ZM20.96 6.80L20.96 2.00L25.75 2.00L25.75 3.60L25.75 3.60Q25.75 3.63 25.72 3.63L25.72 3.63L22.87 3.63L22.87 5.74L25.42 5.74L25.42 5.76L25.42 5.76Q25.42 5.84 25.40 6.79L25.40 6.79L25.40 6.79Q25.38 6.79 25.38 6.80L25.38 6.80L25.49 6.80L25.49 7.29L23.28 7.29L23.28 9.29L22.69 9.29L22.69 9.49L23.28 9.49L23.28 10.10L25.79 10.10L25.79 10.32L25.59 10.32L25.59 11.52L22.59 11.52L22.59 11.73L21.17 11.73L21.17 8.24L20.96 8.24L20.96 7.01L19.40 7.01L19.40 6.80L20.96 6.80ZM21.77 6.80L20.97 6.80L20.97 7.01L21.77 7.01L21.77 6.80ZM30.28 1.95L30.28 1.95L30.28 1.95Q32.39 1.95 33.05 3.42L33.05 3.42L33.05 3.42Q33.43 4.14 33.43 6.19L33.43 6.19L33.43 6.23L32.70 6.23L32.70 6.56L33.43 6.56L33.43 10.10L32.95 10.10L32.95 11.37L32.00 11.37L32.00 11.73L28.68 11.73L28.68 11.37L28.27 11.37L28.27 10.10L27.42 10.10L27.42 9.10L27.92 9.10L27.92 8.57L27.42 8.57L27.42 9.10L26.21 9.10L26.21 8.57L27.13 8.57L27.13 8.57Q27.11 7.38 27.11 6.74L27.11 6.74L27.11 5.91L27.11 5.91Q27.11 3.58 27.90 2.80L27.90 2.80L27.90 2.80Q28.62 1.95 30.28 1.95ZM29.09 5.32L29.09 5.32L29.11 5.32L29.09 5.35L29.09 6.23L28.36 6.23L28.36 6.56L29.09 6.56L29.09 6.56Q29.07 8.67 29.07 9.75L29.07 9.75L29.07 10.10L30.71 10.10L30.71 9.56L31.46 9.56L31.46 9.54L31.46 9.54Q31.46 8.54 31.45 6.75L31.45 6.75L31.45 6.75Q31.45 6.68 31.46 6.38L31.46 6.38L31.46 6.38Q31.46 4.45 31.23 4.01L31.23 4.01L31.23 4.01Q31.00 3.58 30.38 3.58L30.38 3.58L30.14 3.58L30.14 3.58Q29.39 3.58 29.22 4.24L29.22 4.24L29.22 4.24Q29.13 4.56 29.09 5.32ZM33.43 6.56L33.43 6.23L34.60 6.23L34.60 6.56L33.43 6.56ZM34.16 7.49L34.16 1.96L37.51 1.96L37.51 1.96Q39.19 1.96 39.68 3.14L39.68 3.14L39.68 3.14Q39.89 3.75 39.89 4.53L39.89 4.53L39.89 4.94L39.89 4.94Q39.89 6.36 39.27 7.11L39.27 7.11L38.56 7.11L38.56 7.47L39.65 7.47L39.65 9.81L39.01 9.81L39.01 10.17L39.98 10.17L39.98 11.55L37.94 11.55L37.94 9.34L37.15 9.34L37.15 7.92L35.79 7.92L35.79 10.34L36.08 10.34L36.08 11.73L34.19 11.73L34.19 11.73Q34.16 11.73 34.16 11.70L34.16 11.70L34.16 7.77L35 7.77L35 7.49L34.16 7.49ZM36.89 3.55L36.08 3.55L36.08 6.31L36.54 6.31L36.54 6.31Q37.59 6.31 37.75 6.11L37.75 6.11L37.75 6.11Q37.93 6.00 38.02 5.67L38.02 5.67L38.75 5.67L38.75 5.32L38.09 5.32L38.09 5.35L38.09 5.35Q38.04 5.67 38.01 5.67L38.01 5.67L37.07 5.67L37.07 5.32L38.06 5.32L38.06 5.32Q38.09 5.32 38.09 5.29L38.09 5.29L38.09 5.29Q38.10 4.87 38.10 4.81L38.10 4.81L38.10 4.81Q38.10 3.90 37.79 3.69L37.79 3.69L37.79 3.69Q37.54 3.55 36.89 3.55L36.89 3.55ZM40.70 1.96L40.70 1.96L42.62 1.96L42.62 1.96Q42.62 3.37 43.11 4.35L43.11 4.35L43.11 4.35Q43.64 5.64 43.84 6.39L43.84 6.39L43.84 6.41L43.85 6.41L43.85 6.41Q44.10 5.50 44.87 3.62L44.87 3.62L44.87 3.62Q45.07 2.72 45.07 1.96L45.07 1.96L46.87 1.96L46.87 1.96Q46.71 3.43 46.46 4.13L46.46 4.13L45.38 6.59L44.72 6.59L44.72 8.28L43.72 8.28L43.72 8.61L44.72 8.61L44.72 11.73L42.85 11.73L42.85 11.73Q42.82 11.73 42.82 11.70L42.82 11.70L42.82 10.17L42.52 10.17L42.52 7.46L43.08 7.46L43.08 7.21L42.47 7.21L42.47 7.21Q42.40 7.12 41.34 4.67L41.34 4.67L41.34 4.67Q40.89 3.68 40.89 3.49L40.89 3.49L41.70 3.49L41.70 3.14L40.83 3.14L40.83 3.14Q40.70 2.06 40.70 1.96ZM39.53 3.49L39.53 3.14L40.83 3.14L40.88 3.49L39.53 3.49ZM44.72 8.61L44.72 8.28L45.53 8.28L45.53 8.61L44.72 8.61ZM46.93 3.57L46.93 1.93L52.67 1.93L52.67 3.57L50.77 3.57L50.77 10.34L51.63 10.34L51.63 10.54L50.77 10.54L50.77 11.29L50.26 11.29L50.26 11.55L50.62 11.55L50.62 11.73L48.88 11.73L48.88 11.73Q48.84 11.73 48.84 11.70L48.84 11.70L48.84 3.57L46.93 3.57ZM50.76 10.34L50.09 10.34L50.09 10.54L50.76 10.54L50.76 10.34ZM52.90 6.80L52.90 2.00L57.69 2.00L57.69 3.60L57.69 3.60Q57.69 3.63 57.65 3.63L57.65 3.63L54.81 3.63L54.81 5.74L57.36 5.74L57.36 5.76L57.36 5.76Q57.36 5.84 57.33 6.79L57.33 6.79L57.33 6.79Q57.31 6.79 57.31 6.80L57.31 6.80L57.43 6.80L57.43 7.29L55.22 7.29L55.22 9.29L54.63 9.29L54.63 9.49L55.22 9.49L55.22 10.10L57.72 10.10L57.72 10.32L57.52 10.32L57.52 11.52L54.53 11.52L54.53 11.73L53.11 11.73L53.11 8.24L52.90 8.24L52.90 7.01L51.34 7.01L51.34 6.80L52.90 6.80ZM53.71 6.80L52.91 6.80L52.91 7.01L53.71 7.01L53.71 6.80Z"></path></g><!----><!----></svg>