<svg data-v-423bf9ae="" xmlns="http://www.w3.org/2000/svg" viewBox="0 0 396 107" class="iconLeft"><!----><!----><!----><g data-v-423bf9ae="" id="c6048103-a5f1-4c97-9ae1-f7e292114f1e" fill="white" transform="matrix(9.568411656130035,0,0,9.568411656130035,101.1081797070872,-38.93888636836104)"><path d="M1.87 6.58L0.12 8.23L0.27 8.37L0.27 8.37Q0.85 7.79 1.08 7.91L1.08 7.91L1.08 7.91Q1.31 8.04 1.08 8.80L1.08 8.80L0.39 11.58L0.39 11.58Q0.27 12.56 0.94 12.71L0.94 12.71L2.63 11.40L2.56 11.27L2.56 11.27Q1.75 11.70 1.90 11.05L1.90 11.05L2.57 8.37L2.57 8.37Q2.82 7.57 3.18 7.54L3.18 7.54L3.18 7.54Q3.54 7.51 3.75 8.24L3.75 8.24L5.13 7.35L5.13 7.35Q4.85 6.67 4.38 6.55L4.38 6.55L4.38 6.55Q3.90 6.43 3.47 6.75L3.47 6.75L3.47 6.75Q3.04 7.07 2.67 7.58L2.67 7.58L2.67 7.58Q2.77 6.70 1.87 6.58L1.87 6.58ZM7.66 6.52L7.66 6.52Q6.73 7.02 5.77 8.07L5.77 8.07L5.77 8.07Q4.80 9.11 4.60 9.85L4.60 9.85L4.60 9.85Q4.40 10.59 4.97 11.61L4.97 11.61L4.97 11.61Q5.54 12.63 5.96 12.68L5.96 12.68L5.96 12.68Q6.86 12.04 7.42 11.63L7.42 11.63L7.42 11.63Q7.46 12.37 8.27 12.73L8.27 12.73L9.95 11.09L9.75 10.94L9.39 11.26L9.39 11.26Q9.02 11.42 8.85 11.14L8.85 11.14L8.85 11.14Q8.69 10.87 8.78 10.47L8.78 10.47L9.45 7.18L9.45 7.18Q9.56 6.68 9.95 6.51L9.95 6.51L7.66 6.52ZM6.65 7.60L8.31 7.60L7.98 8.07L7.93 8.32L7.34 11.25L7.34 11.25Q6.65 11.72 6.03 10.45L6.03 10.45L6.03 10.45Q5.41 9.17 6.65 7.60L6.65 7.60ZM13.27 6.54L13.27 6.54Q12.58 6.79 11.66 7.53L11.66 7.53L11.66 7.53Q9.78 9.04 9.98 10.32L9.98 10.32L9.98 10.32Q10.18 11.59 10.71 12.20L10.71 12.20L10.71 12.20Q11.24 12.80 11.77 12.68L11.77 12.68L11.77 12.68Q12.97 11.89 14.18 10.62L14.18 10.62L14.04 10.47L14.04 10.47Q13.34 11.13 12.71 11.32L12.71 11.32L12.71 11.32Q11.97 11.47 11.50 10.51L11.50 10.51L11.50 10.51Q11.04 9.56 11.34 8.67L11.34 8.67L11.34 8.67Q11.65 7.79 12.06 7.68L12.06 7.68L12.06 7.68Q12.47 7.57 12.86 7.83L12.86 7.83L12.86 7.83Q13.25 8.09 13.20 8.85L13.20 8.85L14.52 7.87L14.52 7.87Q14.77 7.21 14.33 6.84L14.33 6.84L14.33 6.84Q13.90 6.47 13.27 6.54L13.27 6.54ZM17.41 6.60L17.41 6.60L17.41 6.60Q17.03 6.77 16.11 7.54L16.11 7.54L16.11 7.54Q15.19 8.31 14.81 9.52L14.81 9.52L14.81 9.52Q14.42 10.73 15.05 11.70L15.05 11.70L15.05 11.70Q15.68 12.67 16.29 12.75L16.29 12.75L16.29 12.75Q16.89 12.82 17.45 12.39L17.45 12.39L17.45 12.39Q18.01 11.96 18.83 10.90L18.83 10.90L18.83 10.90Q19.65 9.84 19.73 8.90L19.73 8.90L19.73 8.90Q19.81 7.96 19.28 7.30L19.28 7.30L19.28 7.30Q18.75 6.65 18.27 6.54L18.27 6.54L18.27 6.54Q17.79 6.43 17.41 6.60ZM16.86 7.67L16.86 7.67L16.86 7.67Q17.53 7.57 18.10 8.30L18.10 8.30L18.10 8.30Q18.66 9.03 18.59 9.85L18.59 9.85L18.59 9.85Q18.51 10.67 18.09 11.09L18.09 11.09L18.09 11.09Q17.66 11.50 17.01 11.43L17.01 11.43L17.01 11.43Q16.37 11.35 16.02 10.31L16.02 10.31L16.02 10.31Q15.67 9.27 15.93 8.52L15.93 8.52L15.93 8.52Q16.18 7.78 16.86 7.67ZM22.67 6.60L22.67 6.60L22.67 6.60Q22.29 6.77 21.37 7.54L21.37 7.54L21.37 7.54Q20.45 8.31 20.07 9.52L20.07 9.52L20.07 9.52Q19.69 10.73 20.32 11.70L20.32 11.70L20.32 11.70Q20.95 12.67 21.55 12.75L21.55 12.75L21.55 12.75Q22.16 12.82 22.71 12.39L22.71 12.39L22.71 12.39Q23.27 11.96 24.09 10.90L24.09 10.90L24.09 10.90Q24.92 9.84 25.00 8.90L25.00 8.90L25.00 8.90Q25.07 7.96 24.54 7.30L24.54 7.30L24.54 7.30Q24.01 6.65 23.54 6.54L23.54 6.54L23.54 6.54Q23.06 6.43 22.67 6.60ZM22.12 7.67L22.12 7.67L22.12 7.67Q22.80 7.57 23.36 8.30L23.36 8.30L23.36 8.30Q23.93 9.03 23.85 9.85L23.85 9.85L23.85 9.85Q23.78 10.67 23.35 11.09L23.35 11.09L23.35 11.09Q22.93 11.50 22.28 11.43L22.28 11.43L22.28 11.43Q21.63 11.35 21.28 10.31L21.28 10.31L21.28 10.31Q20.94 9.27 21.19 8.52L21.19 8.52L21.19 8.52Q21.44 7.78 22.12 7.67ZM26.69 6.51L25.15 7.80L25.27 8.00L25.74 7.64L25.74 7.64Q26.29 7.67 26.02 8.76L26.02 8.76L25.46 11.57L25.46 11.57Q25.27 12.58 26.04 12.71L26.04 12.71L27.58 11.44L27.47 11.31L27.01 11.64L27.01 11.64Q26.76 11.53 26.97 10.62L26.97 10.62L27.48 8.05L28.28 7.63L28.28 7.63Q29.66 7.32 29.19 9.03L29.19 9.03L28.68 11.54L28.68 11.54Q28.47 12.54 29.01 12.69L29.01 12.69L30.77 11.43L30.67 11.25L30.19 11.62L30.19 11.62Q29.96 11.59 30.13 10.81L30.13 10.81L30.67 8.10L30.67 8.10Q30.84 7.18 30.34 6.79L30.34 6.79L30.34 6.79Q29.85 6.41 29.22 6.51L29.22 6.51L27.49 7.73L27.49 7.73Q27.56 6.64 26.69 6.51L26.69 6.51Z"></path></g><!----><g data-v-423bf9ae="" id="e3b7343b-9e68-4749-8c3f-78669c169c71" transform="matrix(1.0868111504448785,0,0,1.0868111504448785,-13.255261890115804,-0.23894260335429607)" stroke="none" fill="white"><g clip-rule="evenodd"><path d="M12.983 10.59l17.018 88.223-5.872-59.049 29.021-1.892-.054-9.883L64.549 1 53.622 18.977z"></path><path d="M59.389 54.548l5.16-53.541-8.74 39.716-19.612 1.045 1.57 20.462-7.766 36.583 12.057-39.899z"></path><path d="M62.8 67.182l.549-10.453-15.979 3.755-.032 11.797-17.337 26.532 21.68-27.616zM65.711 62.394l14.841-4.731 1.509-12.532-15.899 2.095zM72.07 44.502l10.988-1.417 1.581-10.278-8.079-.373L64.549 1l8.43 30.967z"></path><path d="M87.413 31.294l1.256-9.506-9.544-2.694L64.549 1l14.483 22.437-.422 7z"></path></g></g><!----></svg>